<svg height="512pt" viewBox="-85 0 512 512.002" width="512pt" xmlns="http://www.w3.org/2000/svg"><path d="m334.121094 266.339844v238.160156h-72.742188v-226.421875zm0 0" fill="#e6f6fc"/><path d="m312.246094 269.871094v234.628906h21.875v-238.160156zm0 0" fill="#cae5ed"/><path d="m334.117188 266.339844c0 16.082031-13.035157 29.121094-29.121094 29.121094-16.082032 0-29.117188-13.039063-29.117188-29.121094 0-16.082032 13.035156-29.121094 29.117188-29.121094 16.085937 0 29.121094 13.039062 29.121094 29.121094zm0 0" fill="#9bb8d1"/><path d="m278.753906 260.699219h26.242188v34.761719h-26.242188c-9.597656 0-17.378906-7.78125-17.378906-17.382813 0-9.597656 7.78125-17.378906 17.378906-17.378906zm0 0" fill="#cae5ed"/><path d="m175.433594 329.878906h-46.867188l-59.46875 25.878906c-37.402344 16.273438-61.59375 53.183594-61.59375 93.976563v51.003906c0 2.078125 1.683594 3.761719 3.761719 3.761719h281.46875c2.078125 0 3.761719-1.683594 3.761719-3.761719v-51.003906c0-40.792969-24.191406-77.703125-61.59375-93.976563zm0 0" fill="#87d1ea"/><path d="m234.902344 355.757812-59.46875-25.878906h-24l59.46875 25.878906c37.402344 16.273438 61.59375 53.183594 61.59375 93.976563v51.003906c0 2.078125-1.683594 3.761719-3.761719 3.761719h24c2.078125 0 3.761719-1.683594 3.761719-3.761719v-51.003906c0-40.792969-24.191406-77.703125-61.59375-93.976563zm0 0" fill="#5fa6ce"/><path d="m137.945312 371.902344h28.109376l20.441406 132.597656h-68.992188zm0 0" fill="#3a4d7b"/><path d="m58.957031 360.867188 39.007813 67.328124 54.023437-33.398437v-64.917969h-23.429687c-63.664063 27.773438-61.300782 26.398438-68.621094 30.40625 0 0-.019531.019532-.039062.039063-.296876.148437-.707032.398437-.941407.542969zm0 0" fill="#c2f4ff"/><path d="m245.015625 360.867188-39.007813 67.328124-54.023437-33.398437v-64.917969h23.429687c63.664063 27.773438 61.300782 26.398438 68.621094 30.40625 0 0 .019532.019532.039063.039063.296875.148437.707031.398437.941406.542969zm0 0" fill="#c2f4ff"/><path d="m111.628906 267.921875v78.890625l40.371094 47.984375 40.371094-47.984375v-78.890625zm0 0" fill="#ffcca9"/><path d="m111.628906 317.398438c16.539063 11.441406 36.609375 18.144531 58.242188 18.144531 7.730468 0 15.261718-.855469 22.5-2.476563v-65.144531h-80.742188zm0 0" fill="#ffa076"/><path d="m49.503906 149.214844v63.738281c0 56.609375 45.886719 102.496094 102.496094 102.496094 56.605469 0 102.496094-45.886719 102.496094-102.496094v-63.738281zm0 0" fill="#ffcca9"/><path d="m229.789062 149.214844v63.738281c0 52.429687-39.359374 95.660156-90.140624 101.761719 4.046874.484375 8.171874.734375 12.351562.734375 56.609375 0 102.496094-45.886719 102.496094-102.496094v-63.738281zm0 0" fill="#ffa076"/><path d="m252.238281 115.375v-7.636719c0-55.359375-44.878906-100.238281-100.238281-100.238281s-100.238281 44.878906-100.238281 100.238281v7.636719c0 1.171875-.949219 2.125-2.121094 2.125h-4.667969c-5.792968 0-10.488281 4.695312-10.488281 10.484375v32.53125c0 1.65625 1.34375 3 3 3h229.03125c1.65625 0 3-1.34375 3-3v-32.53125c0-5.789063-4.695313-10.484375-10.488281-10.484375h-4.667969c-1.171875 0-2.121094-.953125-2.121094-2.125zm0 0" fill="#ffdc61"/><path d="m259.027344 117.5h-4.667969c-1.171875 0-2.125-.953125-2.125-2.125v-7.636719c.003906-55.359375-44.875-100.238281-100.234375-100.238281-4.234375 0-8.40625.261719-12.5.773438 49.460938 6.152343 87.738281 48.335937 87.738281 99.464843v7.636719c0 1.171875.949219 2.125 2.121094 2.125h4.667969c5.792968 0 10.488281 4.695312 10.488281 10.484375v35.53125h22c1.65625 0 3-1.34375 3-3v-32.53125c0-5.792969-4.695313-10.484375-10.488281-10.484375zm0 0" fill="#f7ad48"/><path d="m175.445312 117.5c0 12.949219-10.496093 23.445312-23.445312 23.445312s-23.445312-10.496093-23.445312-23.445312 10.496093-23.445312 23.445312-23.445312 23.445312 10.496093 23.445312 23.445312zm0 0" fill="#ffeea6"/><path d="m64.753906 194.59375c58.164063-6.125 116.328125-6.125 174.492188 0 13.136718 1.382812 24.554687-8.984375 24.554687-22.191406v-8.890625h-223.601562v8.890625c0 13.207031 11.417969 23.574218 24.554687 22.191406zm0 0" fill="#ffeea6"/><path d="m305 229.71875c-15.890625 0-29.789062 10.242188-34.71875 24.957031-3.402344 1.222657-6.503906 3.191407-9.132812 5.820313-4.691407 4.707031-7.277344 10.953125-7.277344 17.582031 0 .207031.003906.414063.011718.617187v78.75c-9.46875-6.128906-12.675781-7.128906-54.011718-25.109374v-20.28125c10.953125-5.300782 21.054687-12.460938 29.914062-21.320313 20.773438-20.773437 32.214844-48.398437 32.214844-77.785156v-18.902344c5.921875-5.621094 9.296875-13.460937 9.296875-21.644531v-2.542969c3.390625-1.742187 5.71875-5.277344 5.71875-9.34375v-32.53125c0-9.679687-7.6875-17.597656-17.277344-17.972656v-2.273438c0-59.585937-48.488281-107.738281-107.738281-107.738281-29.617188 0-58.207031 12.386719-78.464844 33.90625-2.839844 3.015625-2.695312 7.765625.320313 10.601562 3.015625 2.839844 7.761719 2.695313 10.601562-.320312 3.328125-3.535156 6.878907-6.773438 10.621094-9.699219l9.175781 48.871094c.765625 4.070313 4.683594 6.753906 8.757813 5.988281 4.070312-.765625 6.75-4.683594 5.984375-8.753906l-10.316406-54.933594c13.160156-6.972656 27.910156-10.660156 43.320312-10.660156 15.628906 0 30.367188 3.886719 43.300781 10.742188l-10.300781 54.847656c-.867188 4.625 2.6875 8.886718 7.378906 8.886718 3.539063 0 6.6875-2.515624 7.363282-6.117187l9.164062-48.800781c21.789062 16.984375 35.828125 43.472656 35.828125 73.179687v2.257813h-23.988281c-4.140625 0-7.5 3.359375-7.5 7.5 0 4.144531 3.359375 7.5 7.5 7.5h38.28125c1.644531 0 2.984375 1.34375 2.984375 2.988281v28.027344h-220.027344v-28.027344c0-1.644531 1.339844-2.988281 2.988281-2.988281h38.277344c4.144531 0 7.5-3.355469 7.5-7.5 0-4.140625-3.355469-7.5-7.5-7.5h-23.988281v-2.257813c0-14.183593 3.117187-27.792969 9.261719-40.449219 1.808593-3.726562.253906-8.214843-3.472657-10.023437-3.726562-1.808594-8.214843-.253906-10.023437 3.472656-7.144532 14.714844-10.765625 30.527344-10.765625 47v2.273438c-9.589844.375-17.277344 8.292969-17.277344 17.972656v32.53125c0 4.066406 2.324219 7.601563 5.714844 9.34375v2.542969c0 8.183594 3.382812 16.027344 9.300781 21.648437v18.898438c0 43.507812 25.390625 81.199219 62.132812 99.03125v20.355469c-7.917968 3.441406-14.296874 6.210937-19.484374 8.464843-8.660157 3.757813-14.035157 6.089844-17.691407 7.714844l-.847656.367187c-1.472656.640626-2.925781 1.3125-4.359375 2.011719-2.035156.972657-3.375 1.703125-5.414062 2.820313-.0625.035156-.121094.066406-.179688.101562-.230469.125-.445312.253906-.640625.367188-34.070313 19.402344-55.515625 55.734375-55.515625 95.546875v51.011719c0 6.207031 5.050781 11.261718 11.261719 11.261718h322.859375c4.140625 0 7.5-3.359375 7.5-7.5v-238.164062c0-20.191406-16.429688-36.621094-36.621094-36.621094zm0 15c23.667969 0 30.390625 33.402344 7.5 41.898438v-25.917969c0-4.140625-3.355469-7.5-7.5-7.5h-17.175781c3.988281-5.199219 10.261719-8.480469 17.175781-8.480469zm-33.234375 26.375c1.542969-1.542969 3.492187-2.511719 5.695313-2.808594.398437-.058594.820312-.085937 1.292968-.085937h18.75v19.761719h-18.75c-5.308594 0-9.738281-4.316407-9.875-9.621094 0-.066406-.003906-.128906-.007812-.191406v-.066407c0-2.636719 1.03125-5.121093 2.894531-6.988281zm-96.207031 129.453125c-.121094-.078125-.242188-.152344-.363282-.226563l-11.867187-7.335937 34.78125-41.34375c.746094-.886719 1.269531-1.925781 1.542969-3.035156 3.039062 1.324219 5.816406 2.527343 8.359375 3.632812l21.753906 9.46875c2.089844.921875 3.617187 1.605469 4.835937 2.171875l-31.210937 53.875zm-74.976563 17.207031-31.207031-53.871094c.988281-.460937 2.175781-.996093 3.691406-1.671874l31.28125-13.613282c.273438 1.109375.796875 2.152344 1.542969 3.039063l34.777344 41.34375zm155.714844-246.742187v1.390625c0 8.835937-7.636719 15.648437-16.265625 14.730468-29.207031-3.074218-58.621094-4.613281-88.03125-4.613281-29.414062 0-58.824219 1.539063-88.03125 4.613281-8.820312.9375-16.269531-6.101562-16.269531-14.730468v-1.390625zm-199.296875 41.9375v-11.242188c2.792969.519531 5.667969.644531 8.539062.34375 57.371094-6.039062 115.550782-6.039062 172.921876 0 1.027343.109375 2.058593.164063 3.085937.164063 1.835937 0 3.664063-.175782 5.453125-.507813v11.242188c0 25.378906-9.882812 49.234375-27.824219 67.179687-8.53125 8.53125-18.40625 15.242188-29.144531 19.933594-.417969.136719-.820312.308594-1.207031.515625-11.503907 4.835937-23.96875 7.371094-36.824219 7.371094-52.382812 0-95-42.617188-95-95zm95 110c11.316406 0 22.367188-1.695313 32.871094-4.96875v19.125.074219c-.003906.074218 0 .148437 0 .222656v6.671875l-32.871094 39.074219-32.867188-39.074219v-6.675781c0-.097657 0-.199219 0-.296876v-19.167968c10.382813 3.257812 21.421876 5.015625 32.867188 5.015625zm-137 126.78125c0-31.742188 15.78125-60.917969 41.355469-78.398438l35.117187 60.617188c1.015625 1.753906 2.695313 3.019531 4.660156 3.515625 1.964844.492187 4.046876.167968 5.769532-.894532l20.769531-12.835937-11.605469 75.265625h-96.066406zm111.246094 47.269531 13.199218-85.632812 12.550782-7.753907 12.550781 7.757813 13.207031 85.628906zm200.375 0h-22.621094v-47.269531c0-16.1875-3.476562-31.847657-10.332031-46.542969-1.75-3.753906-6.214844-5.378906-9.96875-3.625-3.753907 1.75-5.375 6.214844-3.625 9.96875 5.921875 12.695312 8.925781 26.21875 8.925781 40.199219v47.269531h-96.066406l-11.609375-75.253906 20.742187 12.824218c3.5625 2.199219 8.292969 1.074219 10.4375-2.621093l35.128906-60.644531c5.871094 4.011718 11.445313 8.800781 16.5625 14.421874 1.480469 1.625 3.511719 2.453126 5.546876 2.453126 1.804687 0 3.609374-.648438 5.046874-1.953126 3.066407-2.789062 3.289063-7.535156.5-10.597656-2.054687-2.257812-4.191406-4.417968-6.40625-6.480468v-68.1875c.144532.042968 4.257813 2 9.871094 2 19.96875-1.242188 33.199219 3.675781 47.867188-7.082032zm0 0"/><path d="m269.515625 467.996094h-54.699219c-4.144531 0-7.5 3.359375-7.5 7.5 0 4.144531 3.355469 7.5 7.5 7.5h54.699219c4.140625 0 7.5-3.355469 7.5-7.5 0-4.140625-3.359375-7.5-7.5-7.5zm0 0"/><path d="m182.945312 117.5c0-17.066406-13.882812-30.945312-30.945312-30.945312-17.066406 0-30.945312 13.878906-30.945312 30.945312 0 17.0625 13.878906 30.945312 30.945312 30.945312 17.0625 0 30.945312-13.882812 30.945312-30.945312zm-46.890624 0c0-8.792969 7.152343-15.945312 15.945312-15.945312s15.945312 7.152343 15.945312 15.945312-7.152343 15.945312-15.945312 15.945312-15.945312-7.152343-15.945312-15.945312zm0 0"/></svg>