<?xml version="1.0" encoding="iso-8859-1"?>
<!-- Generator: Adobe Illustrator 19.0.0, SVG Export Plug-In . SVG Version: 6.00 Build 0)  -->
<svg version="1.1" id="Layer_1" xmlns="http://www.w3.org/2000/svg" xmlns:xlink="http://www.w3.org/1999/xlink" x="0px" y="0px"
	 viewBox="0 0 512 512" style="enable-background:new 0 0 512 512;" xml:space="preserve">
<path style="fill:#1E0478;" d="M503.703,231.897c11.062,14.186,11.062,34.019,0,48.205c-28.743,36.842-65.956,67.321-107.635,88.137
	c-42.559,21.233-88.323,32.26-136.111,32.839c-1.319,0.035-6.596,0.035-7.915,0c-47.789-0.579-93.553-11.606-136.111-32.839
	c-41.679-20.816-78.892-51.295-107.635-88.137c-11.062-14.186-11.062-34.019,0-48.205c28.743-36.843,65.956-67.321,107.635-88.137
	c42.559-21.233,88.323-32.26,136.111-32.839c1.319-0.035,6.596-0.035,7.915,0c47.789,0.579,93.553,11.606,136.111,32.839
	C437.748,164.576,474.961,195.055,503.703,231.897z M487.272,267.293c5.195-6.653,5.195-15.933,0-22.587
	c-26.833-34.413-61.593-62.878-100.519-82.306c-11.05-5.519-22.344-10.298-33.846-14.337
	c29.587,26.579,48.229,65.122,48.229,107.936c0,42.79-18.63,81.31-48.182,107.901c11.479-4.038,22.76-8.782,33.799-14.302
	C425.679,330.171,460.439,301.706,487.272,267.293z M380.309,256c0-68.547-55.761-124.309-124.309-124.309
	S131.691,187.453,131.691,256S187.453,380.309,256,380.309S380.309,324.547,380.309,256z M159.08,148.064
	c-11.502,4.05-22.784,8.817-33.834,14.337c-38.925,19.428-73.685,47.893-100.519,82.306c-5.195,6.653-5.195,15.933,0,22.587
	c26.833,34.413,61.593,62.878,100.519,82.306c11.05,5.519,22.344,10.298,33.834,14.337c-29.576-26.591-48.217-65.122-48.217-107.936
	S129.504,174.655,159.08,148.064z"/>
<path style="fill:#FFFFFF;" d="M487.272,244.707c5.195,6.653,5.195,15.933,0,22.587c-26.833,34.413-61.593,62.878-100.519,82.306
	c-11.039,5.519-22.321,10.264-33.799,14.302c29.553-26.59,48.182-65.111,48.182-107.901c0-42.813-18.641-81.357-48.229-107.936
	c11.502,4.038,22.795,8.817,33.846,14.337C425.679,181.829,460.439,210.294,487.272,244.707z"/>
<path style="fill:#94E7EF;" d="M256,131.691c68.547,0,124.309,55.761,124.309,124.309S324.547,380.309,256,380.309
	S131.691,324.547,131.691,256S187.453,131.691,256,131.691z M309.193,256c0-29.333-23.86-53.193-53.193-53.193
	s-53.193,23.86-53.193,53.193s23.86,53.193,53.193,53.193S309.193,285.333,309.193,256z"/>
<path style="fill:#1E0478;" d="M256,202.807c29.333,0,53.193,23.86,53.193,53.193s-23.86,53.193-53.193,53.193
	s-53.193-23.86-53.193-53.193S226.667,202.807,256,202.807z M288.364,256c0-17.843-14.522-32.364-32.364-32.364
	S223.635,238.157,223.635,256s14.522,32.364,32.365,32.364S288.364,273.843,288.364,256z"/>
<path style="fill:#9B8CCC;" d="M256,223.635c17.843,0,32.364,14.522,32.364,32.364S273.843,288.364,256,288.364
	S223.635,273.843,223.635,256S238.157,223.635,256,223.635z"/>
<path style="fill:#FFFFFF;" d="M125.246,162.401c11.05-5.519,22.332-10.287,33.834-14.337
	c-29.576,26.59-48.217,65.122-48.217,107.936s18.641,81.345,48.217,107.936c-11.49-4.038-22.784-8.817-33.834-14.337
	c-38.925-19.428-73.685-47.893-100.519-82.306c-5.195-6.653-5.195-15.933,0-22.587C51.561,210.294,86.321,181.829,125.246,162.401z"
	/>
<g>
</g>
<g>
</g>
<g>
</g>
<g>
</g>
<g>
</g>
<g>
</g>
<g>
</g>
<g>
</g>
<g>
</g>
<g>
</g>
<g>
</g>
<g>
</g>
<g>
</g>
<g>
</g>
<g>
</g>
</svg>
