<?xml version="1.0" encoding="iso-8859-1"?>
<!-- Generator: Adobe Illustrator 19.0.0, SVG Export Plug-In . SVG Version: 6.00 Build 0)  -->
<svg xmlns="http://www.w3.org/2000/svg" xmlns:xlink="http://www.w3.org/1999/xlink" version="1.1" id="Layer_1" x="0px" y="0px" viewBox="0 0 512 512" style="enable-background:new 0 0 512 512;" xml:space="preserve" width="512" height="512">
<g>
	<path style="fill:#FCBE5B;" d="M257.899,16.012c-83.466-1.029-152.424,66.644-152.896,150.115   c-0.276,48.704,22.512,92.091,58.075,119.893c14.5,11.336,22.922,28.757,22.922,47.162V362h140v-28.665   c0-18.357,8.236-35.875,22.718-47.156C384.185,258.55,407,215.442,407,167C407,84.239,340.419,17.029,257.899,16.012z"/>
	<rect x="226" y="278" style="fill:#FFD0B0;" width="60" height="84"/>
	<polygon style="fill:#00AAF0;" points="216,502 297,502 326,472 326,442 195,481  "/>
	<polygon style="fill:#00AAF0;" points="186,402 186,442 326,402 326,362  "/>
	<polygon style="fill:#8397AA;" points="186,472 195,481 326,442 326,402 186,442  "/>
	<polygon style="fill:#8397AA;" points="186,362 186,402 326,362  "/>
	<g>
		<path d="M370.507,53.822C340.55,23.516,300.603,6.537,258.021,6.013c-43.07-0.527-83.814,15.899-114.729,46.263    c-30.896,30.346-48.046,70.759-48.289,113.794c-0.285,50.253,22.282,96.844,61.916,127.828    c12.126,9.48,19.081,23.798,19.081,39.284V472c0,2.652,1.054,5.196,2.929,7.071l30,30c1.876,1.875,4.419,2.929,7.071,2.929h81    c2.711,0,5.306-1.101,7.189-3.05l29-30c1.803-1.865,2.811-4.357,2.811-6.95V333.335c0-15.387,7.052-30.066,18.863-39.267    C394.352,263.306,417,216.992,417,167C417,124.348,400.488,84.153,370.507,53.822z M279.406,268h-46.813l-16.591-38.713    C227.442,233.91,241.406,238,255,238c14.143,0,29.116-4.439,41.241-9.281L279.406,268z M236,288h40v64h-40V288z M316,375.257v19.2    l-120,34.286v-19.2L316,375.257z M196,467.858v-18.315l120-34.286v19.286l-118.143,35.172L196,467.858z M254.6,372L196,388.743    V372H254.6z M292.758,492h-72.615l-6.205-6.204L316,455.411v12.546L292.758,492z M342.572,278.29    C325.934,291.251,316,311.829,316,333.335V352h-20v-71.948l29.191-68.113c1.711-3.992,0.646-8.629-2.63-11.48    s-8.021-3.26-11.738-1.015C310.517,199.629,279.812,218,255,218c-24.646,0-53.301-18.224-53.579-18.403    c-3.695-2.384-8.515-2.074-11.873,0.763c-3.36,2.837-4.472,7.537-2.739,11.579L216,280.052V352h-20v-18.819    c0-21.682-9.755-41.744-26.763-55.041c-34.717-27.139-54.484-67.946-54.234-111.958c0.213-37.668,15.236-73.054,42.304-99.639    c27.085-26.603,62.787-40.959,100.469-40.534C334.544,26.957,397,90.204,397,167C397,210.782,377.162,251.345,342.572,278.29z"/>
		<path d="M145.479,152.58c-5.464-0.218-10.158,4.156-10.39,9.599c-0.232,5.457,4.167,10.167,9.6,10.39c0.141,0,0.271,0,0.41,0    c5.38,0,9.771-4.22,9.98-9.6C155.29,157.46,150.991,152.8,145.479,152.58z"/>
		<path d="M256,46c-24.24,0.01-47.63,7.15-67.641,20.66c-9.64,6.51-18.29,14.36-25.71,23.35    c-7.443,9.008-13.564,19.089-18.119,29.85c-2.15,5.08,0.229,10.96,5.309,13.11c5.022,2.126,10.971-0.288,13.1-5.31    C178.819,90.2,215.33,66,255.97,66H256c5.51,0,10-4.49,10-10C266,50.49,261.52,46.01,256,46z"/>
		<path d="M65,156H35c-5.522,0-10,4.477-10,10s4.478,10,10,10h30c5.522,0,10-4.477,10-10S70.522,156,65,156z"/>
		<path d="M477,156h-30c-5.522,0-10,4.477-10,10s4.478,10,10,10h30c5.522,0,10-4.477,10-10S482.522,156,477,156z"/>
		<path d="M113.871,293.986l-21.213,21.213c-3.905,3.905-3.905,10.237,0,14.143c1.953,1.952,4.512,2.929,7.071,2.929    s5.118-0.977,7.071-2.929l21.213-21.213c3.905-3.905,3.905-10.237,0-14.143C124.107,290.082,117.777,290.082,113.871,293.986z"/>
		<path d="M405.199,2.929l-21.213,21.213c-3.905,3.905-3.905,10.237,0,14.142c1.953,1.953,4.512,2.929,7.071,2.929    s5.118-0.977,7.071-2.929l21.213-21.213c3.905-3.905,3.905-10.237,0-14.142C415.436-0.977,409.105-0.976,405.199,2.929z"/>
		<path d="M113.871,38.284c1.953,1.953,4.512,2.929,7.071,2.929c2.559,0,5.118-0.977,7.071-2.929c3.905-3.905,3.905-10.237,0-14.142    L106.801,2.929c-3.905-3.905-10.235-3.905-14.143,0c-3.905,3.905-3.905,10.237,0,14.142L113.871,38.284z"/>
		<path d="M398.129,293.986c-3.906-3.904-10.236-3.904-14.143,0c-3.905,3.905-3.905,10.237,0,14.143l21.213,21.213    c1.953,1.952,4.512,2.929,7.071,2.929s5.118-0.977,7.071-2.929c3.905-3.905,3.905-10.237,0-14.143L398.129,293.986z"/>
	</g>
</g>















</svg>
