<?xml version="1.0" encoding="utf-8"?>
<!-- Generator: Adobe Illustrator 22.0.1, SVG Export Plug-In . SVG Version: 6.00 Build 0)  -->
<svg version="1.1" id="Layer_1" xmlns="http://www.w3.org/2000/svg" xmlns:xlink="http://www.w3.org/1999/xlink" x="0px" y="0px"
	 viewBox="0 0 511 511" style="enable-background:new 0 0 511 511;" xml:space="preserve">
<style type="text/css">
	.st0{fill:#FCBE5B;}
	.st1{fill:#D38009;}
	.st2{fill:#C4C5C6;}
	.st3{fill:#F9F7F4;}
	.st4{fill:#64DCFC;}
	.st5{fill:#00D1FC;}
	.st6{fill:#838383;}
	.st7{fill:#5A5A5A;}
	.st8{fill:#F49F08;}
	.st9{fill:#E7E7E7;}
	.st10{fill:#CECECE;}
</style>
<path class="st0" d="M423.6,295.9c0,114.6-92.9,207.6-207.6,207.6S8.5,410.6,8.5,295.9S101.4,88.4,216.1,88.4
	S423.6,181.3,423.6,295.9z"/>
<path class="st1" d="M423.6,295.9c0,114.6-92.9,207.6-207.6,207.6c-33.6,0-65.3-8-93.3-22.1c20.2,6.5,41.7,10.1,64,10.1
	c114.6,0,207.6-92.9,207.6-207.6c0-81.1-46.5-151.4-114.3-185.5C363.3,125.3,423.6,203.6,423.6,295.9z"/>
<path class="st2" d="M366.1,295.9c0,82.8-67.2,150-150,150c-82.8,0-150-67.2-150-150c0-82.8,67.2-150,150-150
	C298.9,145.9,366.1,213.1,366.1,295.9z"/>
<path class="st3" d="M366.1,295.9c0,82.8-67.2,150-150,150c-29.7,0-57.3-8.6-80.6-23.5c16.3,6.1,33.9,9.4,52.3,9.4
	c82.9,0,150-67.2,150-150c0-53.2-27.7-99.9-69.4-126.5C325.4,176.6,366.1,231.5,366.1,295.9z"/>
<path class="st4" d="M308.2,295.9c0,50.9-41.3,92.2-92.2,92.2s-92.2-41.3-92.2-92.2s41.3-92.2,92.2-92.2S308.2,245,308.2,295.9z"/>
<path class="st5" d="M308.2,295.9c0,50.9-41.3,92.2-92.2,92.2c-25.5,0-48.5-10.3-65.2-27c9,2.9,18.5,4.5,28.5,4.5
	c50.9,0,92.2-41.3,92.2-92.2c0-25.4-10.3-48.4-27-65.1C281.5,220.2,308.2,255,308.2,295.9z"/>
<path class="st6" d="M260.8,295.9c0,24.7-20,44.7-44.7,44.7s-44.7-20-44.7-44.7c0-24.7,20-44.7,44.7-44.7S260.8,271.2,260.8,295.9z"
	/>
<path class="st7" d="M260.8,295.9c0,24.7-20,44.7-44.7,44.7c-13.9,0-26.4-6.4-34.6-16.4c4.4,1.5,9.2,2.3,14.1,2.3
	c24.7,0,44.7-20,44.7-44.7c0-10.8-3.8-20.7-10.2-28.4C247.9,259.4,260.8,276.2,260.8,295.9z"/>
<path class="st0" d="M357.5,125.2l-9.3-57.6c-0.3-1.8,0.3-3.5,1.5-4.8l53.7-53.7c3.2-3.2,8.8-1.4,9.4,3.2l6.6,50.9L357.5,125.2z"/>
<path class="st0" d="M386.7,155.8l57.6,9.3c1.8,0.3,3.5-0.3,4.8-1.6l53.7-53.7c3.2-3.2,1.4-8.8-3.2-9.4l-50.9-6.6L386.7,155.8z"/>
<path class="st8" d="M502.8,109.8l-53.7,53.7c-1.3,1.3-3,1.8-4.8,1.6l-15.3-2.5l63.1-63.1l7.5,1C504.1,101,506,106.5,502.8,109.8z"
	/>
<path class="st9" d="M207.4,305.7c-8.2-8.2-8.2-21.4,0-29.6L423,59.7c8.2-8.2,21.5-8.2,29.7,0c8.2,8.2,8.2,21.4,0,29.6L237.1,305.6
	C228.9,313.8,215.6,313.8,207.4,305.7z"/>
<path class="st10" d="M458.8,74.5c0,5.4-2,10.7-6.1,14.8L237.1,305.6c-8.2,8.2-21.5,8.2-29.7,0c-1.6-1.6-2.9-3.4-3.9-5.3
	c6.6,1.3,13.8-0.6,18.9-5.8L438.1,78.3c4.1-4.1,6.1-9.4,6.1-14.8c0-3.3-0.8-6.5-2.3-9.5c3.9,0.8,7.7,2.7,10.8,5.8
	C456.8,63.8,458.8,69.2,458.8,74.5z"/>
<path d="M511.2,101.7c-1.6-4.7-5.7-8.1-10.6-8.7l-37.7-4.9c5.8-10.8,4.2-24.6-4.9-33.7c-5.4-5.4-12.5-8.3-20.1-8.3c0,0,0,0,0,0
	c-4.5,0-8.7,1-12.6,3l-4.9-37.7c-0.6-5-4-9-8.7-10.6c-4.7-1.6-9.9-0.4-13.4,3.1l-53.7,53.7c-2.9,2.9-4.3,7.2-3.6,11.3l8.7,54.1
	l-2.5,2.5c-37.4-28.8-83-44.5-131-44.5c-45.1,0-88.3,13.8-124.9,39.9c-3.4,2.4-4.1,7.1-1.7,10.5c2.4,3.4,7.1,4.1,10.5,1.7
	c34-24.3,74.2-37.1,116.2-37.1c45.1,0,86.7,15,120.2,40.3l-30.4,30.5c-25.5-17.8-56.4-28.2-89.8-28.2
	c-86.8,0-157.5,70.7-157.5,157.5c0,86.8,70.7,157.5,157.5,157.5s157.5-70.7,157.5-157.5c0-33-10.2-63.6-27.6-88.9l30.5-30.6
	c24.9,33.4,39.7,74.7,39.7,119.5c0,110.3-89.8,200.1-200.1,200.1S16,406.3,16,295.9c0-49.3,18.1-96.7,51-133.4
	c2.8-3.1,2.5-7.8-0.6-10.6c-3.1-2.8-7.8-2.5-10.6,0.6C20.5,192,1,242.9,1,295.9C1,353.4,23.4,407.4,64,448s94.6,63,152.1,63
	s111.5-22.4,152.1-63s63-94.6,63-152.1c0-47.7-15.4-93-43.9-130.3l1.9-1.9l54,8.7c0.7,0.1,1.4,0.2,2.1,0.2c3.4,0,6.8-1.4,9.2-3.8
	l11.5-11.5c2.9-2.9,2.9-7.7,0-10.6c-2.9-2.9-7.7-2.9-10.6,0l-10.8,10.8l-42.1-6.8l49-49l43.3,5.6l-6.5,6.5c-2.9,2.9-2.9,7.7,0,10.6
	c2.9,2.9,7.7,2.9,10.6,0l9.3-9.3C511.6,111.6,512.8,106.4,511.2,101.7z M405.9,17.2l5.6,43.3l-49,49l-6.8-42.1L405.9,17.2z
	 M358.6,295.9c0,78.6-63.9,142.5-142.5,142.5S73.5,374.5,73.5,295.9c0-78.6,63.9-142.5,142.5-142.5c29.2,0,56.4,8.8,79,24L264,208.6
	c-14.2-7.9-30.6-12.3-47.9-12.3c-54.9,0-99.6,44.7-99.6,99.7c0,54.9,44.7,99.6,99.6,99.6s99.6-44.7,99.6-99.6
	c0-16.9-4.2-32.8-11.7-46.8l31.2-31.3C350,240.3,358.6,267.1,358.6,295.9z M202.1,311c5.4,5.4,12.5,8.3,20.1,8.3h0
	c7.6,0,14.8-3,20.1-8.4l10.6-10.7c-2.2,18.5-17.9,32.9-37,32.9c-20.5,0-37.2-16.7-37.2-37.2c0-19.9,15.6-36.1,35.2-37.2l-11.9,12
	C191,281.8,191.1,299.9,202.1,311z M163.8,295.9c0,28.8,23.4,52.2,52.2,52.2s52.2-23.4,52.2-52.2c0-3.4-0.3-6.8-1-10l25.5-25.6
	c5,10.8,7.9,22.9,7.9,35.6c0,46.7-38,84.7-84.7,84.7s-84.7-38-84.7-84.7c0-46.7,38-84.7,84.7-84.7c13.2,0,25.7,3.1,36.9,8.5
	L227.7,245c-3.7-0.9-7.6-1.3-11.6-1.3C187.3,243.7,163.8,267.1,163.8,295.9z M231.8,300.3c-2.5,2.6-5.9,4-9.5,4c0,0,0,0,0,0
	c-3.6,0-7-1.4-9.5-3.9c-5.2-5.2-5.3-13.8,0-19L428.3,65c2.5-2.6,5.9-4,9.5-4h0c3.6,0,7,1.4,9.5,3.9c5.2,5.2,5.3,13.8,0,19
	L231.8,300.3z"/>
</svg>
